<svg xmlns="http://www.w3.org/2000/svg" width="400" height="400" viewBox="0 0 400 400" version="1.1"><g stroke="none" stroke-width="1" fill="none" fill-rule="evenodd"><path d="M200 392C306 392 392 306 392 200 392 94 306 8 200 8 94 8 8 94 8 200 8 306 94 392 200 392Z" stroke="#9B9B9B" stroke-width="16" fill="#FFFFFF"/><g transform="translate(200, 200) rotate(150) translate(-200, -200) translate(196, 20)" fill="#4A4A4A"><rect x="0" y="0" width="8" height="20"/><rect x="0" y="340" width="8" height="20"/></g><g transform="translate(200, 200) rotate(120) translate(-200, -200) translate(196, 20)" fill="#4A4A4A"><rect x="0" y="0" width="8" height="20"/><rect x="0" y="340" width="8" height="20"/></g><g transform="translate(200, 200) rotate(90) translate(-200, -200) translate(196, 20)" fill="#4A4A4A"><rect x="0" y="0" width="8" height="20"/><rect x="0" y="340" width="8" height="20"/></g><g transform="translate(200, 200) rotate(60) translate(-200, -200) translate(196, 20)" fill="#4A4A4A"><rect x="0" y="0" width="8" height="20"/><rect x="0" y="340" width="8" height="20"/></g><g transform="translate(200, 200) rotate(30) translate(-200, -200) translate(196, 20)" fill="#4A4A4A"><rect x="0" y="0" width="8" height="20"/><rect x="0" y="340" width="8" height="20"/></g><g transform="translate(196, 20)" fill="#4A4A4A"><rect x="0" y="0" width="8" height="20"/><rect x="0" y="340" width="8" height="20"/></g><g transform="translate(200, 200) rotate(190) translate(-200, -200) translate(190, 20)"><rect fill="#000000" x="0" y="0" width="20" height="220"/><rect x="0" y="140" width="20" height="220"/></g><g transform="translate(200, 200) rotate(-44) translate(-200, -200) translate(190, 50)"><rect fill="#000000" x="0" y="0" width="20" height="190"/><rect x="0" y="110" width="20" height="190"/></g><g transform="translate(200, 200) rotate(60) translate(-200, -200) translate(186, 70)"><rect fill="#D0011B" x="10" y="0" width="8" height="190"/><rect x="10" y="70" width="8" height="190"/><circle fill="#D0011B" cx="14" cy="130" r="14"/></g></g></svg>
